<?xml version="1.0" encoding="UTF-8"?>
<svg id="Ebene_2" xmlns="http://www.w3.org/2000/svg" viewBox="0 0 273.11 51.25">
  <defs>
    <style>
      .cls-1 {
        fill: #c32c88;
      }

      .cls-2 {
        fill: #0b92d0;
      }
    </style>
  </defs>
  <g id="Ebene_1-2" data-name="Ebene_1">
    <g>
      <path class="cls-1" d="M133.18,50.37h0c-7.52,2.71-15.86-1.09-18.62-8.49l-4.4-11.81-11.79,16.49c-1.64,2.29-5.05,2.29-6.69,0l-11.79-16.49-4.4,11.81c-2.76,7.4-11.1,11.2-18.62,8.49-7.52-2.71-11.39-10.92-8.63-18.32l8.46-22.69c2.76-7.4,11.1-11.2,18.62-8.49,2,.72,3.73,1.84,5.16,3.22l10.21,8.71c2.32,1.98,5.74,2.02,8.1.09l10.79-8.8c1.43-1.38,3.16-2.5,5.16-3.22h0c7.52-2.71,15.86,1.09,18.62,8.49l8.46,22.69c2.76,7.4-1.1,15.6-8.63,18.32ZM77.82,4.95c-2.08-1.61-4.69-2.58-7.54-2.58-6.75,0-12.22,5.38-12.22,12.02s5.47,12.02,12.22,12.02c2.85,0,5.47-.97,7.54-2.58,2.84-2.2,4.67-5.61,4.67-9.44s-1.83-7.24-4.67-9.44ZM90.3,16.23c-1.73,0-3.13,1.38-3.13,3.08s1.4,3.08,3.13,3.08,3.13-1.38,3.13-3.08-1.4-3.08-3.13-3.08ZM99.74,16.23c-1.73,0-3.13,1.38-3.13,3.08s1.4,3.08,3.13,3.08,3.13-1.38,3.13-3.08-1.4-3.08-3.13-3.08ZM119.76,2.37c-2.85,0-5.47.97-7.54,2.58-2.84,2.2-4.67,5.61-4.67,9.44s1.83,7.24,4.67,9.44c2.08,1.61,4.69,2.58,7.54,2.58,6.75,0,12.22-5.38,12.22-12.02s-5.47-12.02-12.22-12.02ZM122.04,19.91c0,.88-.73,1.6-1.62,1.6h-1.31c-.9,0-1.62-.72-1.62-1.6v-3.5h-3.55c-.9,0-1.62-.72-1.62-1.6v-1.28c0-.88.73-1.6,1.62-1.6h3.55v-3.5c0-.88.73-1.6,1.62-1.6h1.31c.89,0,1.62.72,1.62,1.6v3.5h3.56c.9,0,1.62.72,1.62,1.6v1.28c0,.88-.73,1.6-1.62,1.6h-3.56v3.5ZM74.76,16.48c-1.17-1.15-1.17-3.03,0-4.18,1.17-1.16,3.08-1.16,4.25,0,1.17,1.15,1.17,3.03,0,4.18-1.17,1.16-3.08,1.16-4.25,0ZM68.15,22.98c-1.17-1.16-1.17-3.03,0-4.18,1.17-1.15,3.08-1.15,4.25,0,1.17,1.16,1.17,3.03,0,4.18-1.17,1.16-3.08,1.16-4.25,0ZM68.15,9.98c-1.17-1.16-1.17-3.03,0-4.18,1.17-1.15,3.08-1.15,4.25,0,1.17,1.16,1.17,3.03,0,4.18-1.17,1.16-3.08,1.16-4.25,0ZM61.54,16.48c-1.17-1.15-1.17-3.03,0-4.18,1.17-1.16,3.08-1.16,4.25,0,1.17,1.15,1.17,3.03,0,4.18-1.17,1.16-3.08,1.16-4.25,0Z"/>
      <g>
        <path class="cls-2" d="M0,34.78V13.58C0,7.13,3.23,3.44,9.45,3.44s9.45,3.69,9.45,10.14v3.46h-5.99v-3.86c0-2.88-1.27-3.98-3.28-3.98s-3.28,1.09-3.28,3.98v22.07c0,2.88,1.27,3.92,3.28,3.92s3.28-1.04,3.28-3.92v-7.89h-3.17v-5.76h9.16v13.19c0,6.45-3.23,10.14-9.45,10.14S0,41.24,0,34.78Z"/>
        <path class="cls-2" d="M27.88,4.02h8.58l6.57,40.33h-6.34l-1.15-8.01v.12h-7.2l-1.15,7.89h-5.88L27.88,4.02ZM34.8,30.98l-2.82-19.94h-.12l-2.77,19.94h5.7Z"/>
      </g>
      <g>
        <path class="cls-2" d="M146.37,4.02h17.29v5.76h-10.95v10.66h8.7v5.76h-8.7v12.39h10.95v5.76h-17.29V4.02Z"/>
        <path class="cls-2" d="M166.3,34.78v-2.3h5.99v2.77c0,2.88,1.27,3.92,3.28,3.92s3.28-1.04,3.28-4.03c0-3.34-1.27-5.47-5.42-9.1-5.3-4.67-7.03-7.95-7.03-12.56,0-6.34,3.28-10.03,9.45-10.03s9.22,3.69,9.22,10.14v1.67h-5.99v-2.07c0-2.88-1.15-3.98-3.17-3.98s-3.17,1.09-3.17,3.86c0,2.94,1.33,5.07,5.47,8.7,5.3,4.67,6.97,7.89,6.97,12.91,0,6.57-3.34,10.26-9.56,10.26s-9.33-3.69-9.33-10.14Z"/>
        <path class="cls-2" d="M193.78,9.78h-6.63v-5.76h19.59v5.76h-6.63v34.57h-6.34V9.78Z"/>
        <path class="cls-2" d="M209.11,34.78V13.58c0-6.45,3.4-10.14,9.62-10.14s9.62,3.69,9.62,10.14v21.2c0,6.45-3.4,10.14-9.62,10.14s-9.62-3.69-9.62-10.14ZM222.01,35.19V13.18c0-2.88-1.27-3.98-3.28-3.98s-3.28,1.09-3.28,3.98v22.01c0,2.88,1.27,3.98,3.28,3.98s3.28-1.09,3.28-3.98Z"/>
        <path class="cls-2" d="M232.61,4.02h9.39c6.57,0,9.39,3.05,9.39,9.28v2.48c0,4.15-1.33,6.8-4.15,7.95v.12c3.17.98,4.21,3.98,4.21,8.53v7.09c0,1.96.06,3.4.69,4.9h-6.45c-.35-1.04-.58-1.67-.58-4.96v-7.38c0-3.75-1.09-4.96-3.98-4.96h-2.19v17.29h-6.34V4.02ZM241.26,21.3c2.36,0,3.8-1.04,3.8-4.26v-3.11c0-2.88-.98-4.15-3.23-4.15h-2.88v11.52h2.3Z"/>
        <path class="cls-2" d="M255.83,4.02h17.29v5.76h-10.95v10.66h8.7v5.76h-8.7v12.39h10.95v5.76h-17.29V4.02Z"/>
      </g>
    </g>
  </g>
</svg>