<?xml version="1.0" encoding="UTF-8"?>
<svg id="Ebene_2" xmlns="http://www.w3.org/2000/svg" viewBox="0 0 95.35 51.25">
  <defs>
    <style>
      .cls-1 {
        fill: #c32c88;
      }
    </style>
  </defs>
  <g id="Ebene_1-2" data-name="Ebene_1">
    <path class="cls-1" d="M85.83,50.37h0c-7.52,2.71-15.86-1.09-18.62-8.49l-4.4-11.81-11.79,16.49c-1.64,2.29-5.05,2.29-6.69,0l-11.79-16.49-4.4,11.81c-2.76,7.4-11.1,11.2-18.62,8.49C1.99,47.66-1.87,39.46.89,32.05L9.35,9.36C12.11,1.96,20.45-1.84,27.97.88c2,.72,3.73,1.84,5.16,3.22l10.21,8.71c2.32,1.98,5.74,2.02,8.1.09l10.79-8.8c1.43-1.38,3.16-2.5,5.16-3.22h0c7.52-2.71,15.86,1.09,18.62,8.49l8.46,22.69c2.76,7.4-1.1,15.6-8.63,18.32ZM30.48,4.95c-2.08-1.61-4.69-2.58-7.54-2.58-6.75,0-12.22,5.38-12.22,12.02s5.47,12.02,12.22,12.02c2.85,0,5.47-.97,7.54-2.58,2.84-2.2,4.67-5.61,4.67-9.44s-1.83-7.24-4.67-9.44ZM42.95,16.23c-1.73,0-3.13,1.38-3.13,3.08s1.4,3.08,3.13,3.08,3.13-1.38,3.13-3.08-1.4-3.08-3.13-3.08ZM52.4,16.23c-1.73,0-3.13,1.38-3.13,3.08s1.4,3.08,3.13,3.08,3.13-1.38,3.13-3.08-1.4-3.08-3.13-3.08ZM72.42,2.37c-2.85,0-5.47.97-7.54,2.58-2.84,2.2-4.67,5.61-4.67,9.44s1.83,7.24,4.67,9.44c2.08,1.61,4.69,2.58,7.54,2.58,6.75,0,12.22-5.38,12.22-12.02s-5.47-12.02-12.22-12.02ZM74.7,19.91c0,.88-.73,1.6-1.62,1.6h-1.31c-.9,0-1.62-.72-1.62-1.6v-3.5h-3.55c-.9,0-1.62-.72-1.62-1.6v-1.28c0-.88.73-1.6,1.62-1.6h3.55v-3.5c0-.88.73-1.6,1.62-1.6h1.31c.89,0,1.62.72,1.62,1.6v3.5h3.56c.9,0,1.62.72,1.62,1.6v1.28c0,.88-.73,1.6-1.62,1.6h-3.56v3.5ZM27.42,16.48c-1.17-1.15-1.17-3.03,0-4.18,1.17-1.16,3.08-1.16,4.25,0,1.17,1.15,1.17,3.03,0,4.18-1.17,1.16-3.08,1.16-4.25,0ZM20.81,22.98c-1.17-1.16-1.17-3.03,0-4.18,1.17-1.15,3.08-1.15,4.25,0,1.17,1.16,1.17,3.03,0,4.18-1.17,1.16-3.08,1.16-4.25,0ZM20.81,9.98c-1.17-1.16-1.17-3.03,0-4.18,1.17-1.15,3.08-1.15,4.25,0,1.17,1.16,1.17,3.03,0,4.18-1.17,1.16-3.08,1.16-4.25,0ZM14.2,16.48c-1.17-1.15-1.17-3.03,0-4.18,1.17-1.16,3.08-1.16,4.25,0,1.17,1.15,1.17,3.03,0,4.18-1.17,1.16-3.08,1.16-4.25,0Z"/>
  </g>
</svg>