<svg width="32" height="32" viewBox="0 0 32 32" fill="none" xmlns="http://www.w3.org/2000/svg">
<path fill-rule="evenodd" clip-rule="evenodd" d="M12.1873 2.06667C11.9374 2.29095 11.6758 2.50183 11.4036 2.69842C10.9317 3.01508 10.4013 3.23358 9.84399 3.34442C9.60174 3.39192 9.34841 3.4125 8.84332 3.45208C7.57507 3.55342 6.94016 3.60408 6.41132 3.79092C5.80648 4.00411 5.25712 4.35017 4.80364 4.80365C4.35016 5.25713 4.0041 5.80649 3.79091 6.41133C3.60407 6.94017 3.55341 7.57508 3.45207 8.84333C3.43389 9.17856 3.39795 9.51258 3.34441 9.844C3.23357 10.4013 3.01507 10.9318 2.69841 11.4036C2.56066 11.6094 2.39599 11.8026 2.06666 12.1873C1.24174 13.1563 0.828491 13.6408 0.586241 14.1475C0.0273241 15.3192 0.0273241 16.6808 0.586241 17.8525C0.828491 18.3592 1.24174 18.8437 2.06666 19.8127C2.39599 20.1974 2.56066 20.3906 2.69841 20.5964C3.01507 21.0683 3.23357 21.5987 3.34441 22.156C3.39191 22.3983 3.41249 22.6516 3.45207 23.1567C3.55341 24.4249 3.60407 25.0598 3.79091 25.5887C4.0041 26.1935 4.35016 26.7429 4.80364 27.1964C5.25712 27.6498 5.80648 27.9959 6.41132 28.2091C6.94016 28.3959 7.57507 28.4466 8.84332 28.5479C9.34841 28.5875 9.60174 28.6081 9.84399 28.6556C10.4013 28.7664 10.9317 28.9865 11.4036 29.3016C11.6094 29.4393 11.8026 29.604 12.1873 29.9333C13.1563 30.7583 13.6408 31.1715 14.1475 31.4138C15.3192 31.9727 16.6808 31.9727 17.8525 31.4138C18.3592 31.1715 18.8437 30.7583 19.8127 29.9333C20.1974 29.604 20.3906 29.4393 20.5964 29.3016C21.0682 28.9849 21.5987 28.7664 22.156 28.6556C22.3982 28.6081 22.6516 28.5875 23.1567 28.5479C24.4249 28.4466 25.0598 28.3959 25.5887 28.2091C26.1935 27.9959 26.7429 27.6498 27.1963 27.1964C27.6498 26.7429 27.9959 26.1935 28.2091 25.5887C28.3959 25.0598 28.4466 24.4249 28.5479 23.1567C28.5875 22.6516 28.6081 22.3983 28.6556 22.156C28.7664 21.5987 28.9865 21.0683 29.3016 20.5964C29.4393 20.3906 29.604 20.1974 29.9333 19.8127C30.7582 18.8437 31.1715 18.3592 31.4137 17.8525C31.9727 16.6808 31.9727 15.3192 31.4137 14.1475C31.1715 13.6408 30.7582 13.1563 29.9333 12.1873C29.709 11.9374 29.4982 11.6758 29.3016 11.4036C28.9847 10.9318 28.7651 10.4016 28.6556 9.844C28.602 9.51258 28.5661 9.17856 28.5479 8.84333C28.4466 7.57508 28.3959 6.94017 28.2091 6.41133C27.9959 5.80649 27.6498 5.25713 27.1963 4.80365C26.7429 4.35017 26.1935 4.00411 25.5887 3.79092C25.0598 3.60408 24.4249 3.55342 23.1567 3.45208C22.8214 3.4339 22.4874 3.39796 22.156 3.34442C21.5984 3.23488 21.0682 3.01527 20.5964 2.69842C20.3242 2.50183 20.0626 2.29095 19.8127 2.06667C18.8437 1.24175 18.3592 0.828501 17.8525 0.586251C17.2742 0.30944 16.6412 0.165752 16 0.165752C15.3588 0.165752 14.7258 0.30944 14.1475 0.586251C13.6408 0.828501 13.1563 1.24175 12.1873 2.06667ZM22.0657 9.93583C22.3069 10.1775 22.4423 10.5049 22.4423 10.8463C22.4423 11.1876 22.3069 11.515 22.0657 11.7567L11.7567 22.0673C11.6392 22.1959 11.4969 22.2993 11.3384 22.3714C11.1798 22.4434 11.0083 22.4826 10.8342 22.4865C10.6601 22.4904 10.487 22.459 10.3254 22.3942C10.1638 22.3294 10.017 22.2325 9.89382 22.1093C9.77068 21.9862 9.67378 21.8394 9.60895 21.6778C9.54413 21.5161 9.51273 21.343 9.51666 21.1689C9.52058 20.9948 9.55975 20.8233 9.63179 20.6648C9.70384 20.5063 9.80726 20.364 9.93582 20.2465L20.2433 9.93742C20.485 9.69628 20.8124 9.56085 21.1537 9.56085C21.4951 9.56085 21.8225 9.69628 22.0642 9.93742M22.0119 20.2972C22.0119 20.7528 21.8309 21.1897 21.5087 21.5119C21.1866 21.8341 20.7496 22.0151 20.294 22.0151C19.8384 22.0151 19.4014 21.8341 19.0792 21.5119C18.7571 21.1897 18.5761 20.7528 18.5761 20.2972C18.5761 19.8415 18.7571 19.4046 19.0792 19.0824C19.4014 18.7602 19.8384 18.5793 20.294 18.5793C20.7496 18.5793 21.1866 18.7602 21.5087 19.0824C21.8309 19.4046 22.0119 19.8415 22.0119 20.2972ZM11.7044 13.4255C12.16 13.4255 12.597 13.2445 12.9192 12.9223C13.2413 12.6002 13.4223 12.1632 13.4223 11.7076C13.4223 11.252 13.2413 10.815 12.9192 10.4928C12.597 10.1707 12.16 9.98967 11.7044 9.98967C11.2488 9.98967 10.8118 10.1707 10.4897 10.4928C10.1675 10.815 9.98649 11.252 9.98649 11.7076C9.98649 12.1632 10.1675 12.6002 10.4897 12.9223C10.8118 13.2445 11.2488 13.4255 11.7044 13.4255Z" fill="#C32C88"/>
</svg>
